<svg width="41" height="44" viewBox="0 0 41 44" fill="none" xmlns="http://www.w3.org/2000/svg">
<path d="M0.00690517 37.446C0.0849052 39.18 0.834905 40.781 2.1169 41.951C3.3179 43.047 4.87391 43.651 6.49891 43.651C8.32091 43.651 10.0709 42.88 11.2999 41.534L20.4949 31.464L29.6899 41.535C30.9189 42.88 32.6689 43.652 34.4909 43.652C36.1169 43.652 37.6739 43.048 38.8729 41.952C40.1549 40.781 40.9049 39.181 40.9829 37.447C41.0619 35.713 40.4609 34.051 39.2899 32.769L29.2989 21.825L39.2899 10.882C40.4609 9.6 41.0619 7.938 40.9829 6.204C40.9049 4.47 40.1549 2.869 38.8729 1.699C37.6729 0.603 36.1159 0 34.4909 0C32.6689 0 30.9189 0.771 29.6899 2.117L20.4949 12.187L11.2999 2.116C10.0709 0.771 8.32091 0 6.49791 0C4.87291 0 3.31691 0.604 2.1169 1.699C0.834905 2.87 0.0849052 4.47 0.00690517 6.204C-0.0720948 7.938 0.528905 9.6 1.69991 10.882L11.6909 21.826L1.69991 32.767C0.528905 34.05 -0.0720948 35.711 0.00690517 37.446ZM3.9149 34.79L14.1549 23.575C15.0529 22.593 15.0529 21.055 14.1559 20.075L3.9149 8.857C3.2849 8.167 2.96091 7.273 3.00291 6.339C3.04591 5.405 3.44891 4.544 4.14091 3.913C5.51191 2.661 7.83591 2.77 9.08491 4.138L18.7139 14.684C19.6359 15.692 21.3539 15.693 22.2779 14.683L31.9059 4.139C33.1569 2.768 35.4809 2.662 36.8499 3.914C37.5409 4.544 37.9449 5.406 37.9879 6.34C38.0299 7.274 37.7059 8.169 37.0759 8.859L26.8349 20.073C25.9369 21.055 25.9369 22.593 26.8339 23.573L37.0749 34.79C37.7049 35.48 38.0289 36.374 37.9869 37.309C37.9439 38.243 37.5409 39.104 36.8489 39.735C35.4799 40.987 33.1579 40.881 31.9049 39.51L22.2759 28.964C21.8149 28.46 21.1659 28.171 20.4949 28.171C19.8239 28.171 19.1749 28.46 18.7129 28.965L9.08491 39.509C7.83291 40.879 5.51391 40.988 4.14091 39.734C3.44991 39.104 3.04591 38.242 3.00291 37.308C2.96091 36.375 3.2849 35.481 3.9149 34.79Z" fill="#010002"/>
</svg>