<svg width="696" height="457" viewBox="0 0 696 457" fill="none" xmlns="http://www.w3.org/2000/svg">
<path d="M277.931 6.57775C230.468 26.5821 258.824 84.645 219.356 112.396C167.717 148.704 71.1563 137.724 30.8053 180.337C-10.1492 223.588 -3.67016 280.627 16.5926 326.529C38.5082 376.176 81.0276 423.242 147.397 444.459C212.986 465.428 295.052 457.58 367.722 438.781C432.115 422.124 472.087 377.56 526.378 346.421C578.864 316.318 654.75 301.963 681.557 258.782C708.411 215.527 691.726 165.683 662.318 127.451C636.309 93.6358 578.383 82.6959 531.335 63.4786C495.385 48.7947 459.344 37.1656 419.224 28.1569C372.728 17.7163 323.209 -12.5056 277.931 6.57775Z" fill="#EEB58E"/>
</svg>
