<svg width="105" height="140" viewBox="0 0 105 140" fill="none" xmlns="http://www.w3.org/2000/svg">
<path d="M100.078 53.8044V56.6025C100.078 65.4003 98.4334 74.0612 95.2907 81.8118C92.148 89.5623 87.6053 96.1612 82.0682 101.019L63.9844 116.884L57.4219 122.641L52.5 126.96L50.8594 125.537L45.9375 121.264L43.5791 119.218L25.8952 103.872L23.5717 101.856L23.0979 101.443C17.5146 96.5972 12.9296 89.9865 9.75643 82.2072C6.58329 74.4279 4.92183 65.7246 4.92188 56.8823V50.5988C4.922 43.6959 6.40814 36.9361 9.20596 31.1125C11.4122 26.5185 14.4579 22.7361 18.061 20.1158C21.6641 17.4955 25.708 16.1219 29.8184 16.1222H30.4397C34.2328 16.1224 37.9738 17.2925 41.3664 19.5398C44.759 21.787 47.71 25.0498 49.9857 29.0696L52.5 33.5086L55.0143 29.0696C57.433 24.7971 60.6123 21.3839 64.2687 19.1343C67.925 16.8846 71.9448 15.8685 75.9696 16.1765C79.9944 16.4844 83.8991 18.1069 87.3356 20.8993C90.7721 23.6917 93.6335 27.5671 95.6648 32.1801C98.554 38.7442 100.077 46.2061 100.078 53.8044Z" fill="#5D62B5"/>
<path d="M57.4219 104.141V122.614V122.641L63.9844 116.884V97.3491L57.4219 104.141Z" fill="#EA9D2D"/>
<path d="M73.8282 46.5483V51.9816C73.8283 52.6951 73.7224 53.4017 73.5163 54.061C73.3102 54.7203 73.0081 55.3194 72.6272 55.8239C72.2463 56.3285 71.7941 56.7287 71.2964 57.0017C70.7987 57.2746 70.2653 57.415 69.7266 57.4148H65.6251V70.4546L65.0246 72.6311L66.0639 74.8012L66.8637 82.7446C67.0605 84.689 67.1222 86.6531 67.0483 88.6125C66.9085 92.3368 65.8297 95.8914 63.9844 98.7074L57.4219 105.227V122.641L52.5001 126.96L50.8594 125.537V109.574L43.5792 119.218L25.8953 103.872L39.3751 79.1478L42.6563 72.6279L46.9527 66.9366L49.1251 66.2321L49.2188 63.9347V57.8821C49.2191 52.016 50.9785 46.3903 54.1099 42.2425C55.1807 40.8254 56.6323 40.0291 58.1459 40.0284H61.6978C63.1624 40.0288 64.567 40.7998 65.6025 42.1719L68.9063 46.5483H73.8282Z" fill="#FBB540"/>
<path d="M59.0625 46.5483H62.3438V50.8949H59.0625V46.5483Z" fill="#985713"/>
<path d="M66.0642 74.8009H63.6976C60.3956 74.7951 57.1394 73.777 54.184 71.8262L46.9529 66.9363L49.219 63.9345V63.5895L55.6646 67.9469C58.1602 69.593 60.9097 70.4512 63.6976 70.4543H65.6253L66.0642 74.8009Z" fill="#5D62B5"/>
<path d="M52.9083 66.108H49.2188V61.7614H52.9083C53.2351 61.7609 53.5483 61.5887 53.7793 61.2826C54.0104 60.9766 54.1403 60.5616 54.1406 60.1287V53.0682H57.4219V60.1287C57.4205 61.7139 56.9446 63.2337 56.0984 64.3546C55.2522 65.4756 54.105 66.1061 52.9083 66.108Z" fill="#985713"/>
<path d="M52.5001 79.1478V83.4944C52.4998 85.2234 51.9811 86.8815 51.0582 88.1041C50.1352 89.3267 48.8835 90.0138 47.5782 90.0142V97.9196C47.5789 99.8507 47.1471 101.739 46.3375 103.345L44.297 107.401V113.92L44.8937 115.502L45.39 116.819L45.9376 118.267V121.264L43.5792 119.218L25.8953 103.872L23.5718 101.856L32.8126 83.4944V76.6919C32.8126 76.5262 32.8146 76.3578 32.8187 76.1921C32.9226 73.0137 33.833 69.9746 35.4027 67.5668L37.7345 63.9347L39.3751 72.6279H43.3036C44.1138 72.6279 44.9114 72.893 45.6257 73.3996C46.3399 73.9062 46.9486 74.6387 47.3977 75.5319C47.9581 76.6441 48.7169 77.5559 49.607 78.1866C50.497 78.8173 51.4907 79.1475 52.5001 79.1478Z" fill="#E4E4E2"/>
<path d="M41.0156 79.1478H44.2969V83.4944H41.0156V79.1478Z" fill="#29C3BE"/>
</svg>
