<svg width="105" height="127" viewBox="0 0 105 127" fill="none" xmlns="http://www.w3.org/2000/svg">
<path d="M80.3906 108.722V91.0796H90.2344V112.642C90.2344 114.722 89.543 116.716 88.3123 118.186C87.0816 119.657 85.4124 120.483 83.6719 120.483H80.3906V108.722Z" fill="#F6BB92"/>
<path d="M88.1315 79.3182L89.7114 74.6717L91.1128 70.5506C91.8636 68.3346 92.0655 65.8913 91.6929 63.5323C91.3202 61.1733 90.3899 59.0055 89.0206 57.3056C87.1929 55.0364 86.1662 51.959 86.1663 48.7503V37.5H45.0841V48.7511C45.0842 51.9599 44.0575 55.0373 42.2299 57.3064C40.8605 59.0062 39.9301 61.1737 39.5573 63.5326C39.1845 65.8914 39.3862 68.3346 40.1367 70.5506L41.62 74.9302L88.1315 79.3182Z" fill="#834B10"/>
<path d="M90.2344 81.441C90.2344 78.6569 89.4078 75.9631 87.9016 73.8387C86.3954 71.7144 84.3074 70.2973 82.0089 69.8396L80.3906 69.5174L71.9178 67.8302L65.625 75.3981L59.2659 67.7719L47.5781 69.5174V120.483H80.3906V104.802C81.8747 103.028 82.8116 100.705 83.0486 98.213C83.2856 95.7209 82.8085 93.2064 81.6953 91.0799H90.2344V81.441Z" fill="#5D62B5"/>
<path d="M87.5 47.9546H43.75V33.1952C43.75 26.0188 46.0547 19.1363 50.157 14.0618C54.2594 8.98725 59.8234 6.13641 65.625 6.13641C71.4266 6.13641 76.9906 8.98725 81.093 14.0618C85.1953 19.1363 87.5 26.0188 87.5 33.1952V47.9546Z" fill="#834B10"/>
<path d="M78.75 34.233V32.2728L77.1094 22.4716H54.1406L52.5 32.2728V34.233C51.1946 34.233 49.9427 34.8526 49.0197 35.9554C48.0967 37.0582 47.5781 38.554 47.5781 40.1137C47.5781 41.6733 48.0967 49.4654 49.0197 50.5682C49.9427 51.6711 49.4772 50.2473 50.7826 50.2473L50.3125 50.5682H52.5C52.5 54.2074 55.3506 55.0839 57.5043 57.6572C59.6581 60.2305 62.5792 61.6762 65.625 61.6762C68.6708 61.6762 71.5919 60.2305 73.7457 57.6572C75.8994 55.0839 77.1094 53.8865 77.1094 50.2473L78.75 50.5682H80.9375C82.2429 50.5682 81.3073 51.3501 82.2303 50.2473C83.1533 49.1444 83.6719 41.6733 83.6719 40.1137C83.6719 38.554 83.1533 37.0582 82.2303 35.9554C81.3073 34.8526 80.0554 34.233 78.75 34.233Z" fill="#F6BB92"/>
<path d="M63.9844 82.8832V120.483H27.2754C28.4992 118.207 29.9237 116.094 31.5246 114.181L31.6456 114.036C34.5791 110.537 36.9256 106.4 38.5588 101.848C39.2027 100.055 39.8446 98.2612 40.3122 96.9601C40.7367 95.7766 41.0156 94.9998 41.0156 94.9998H36.2947C34.8316 94.9984 33.4107 94.4132 32.2575 93.3373C31.1044 92.2613 30.2849 90.7561 29.9291 89.0603L29.1211 85.1987L28.9099 84.1892C28.789 83.6112 28.7799 83.008 28.8833 82.4252C28.9867 81.8425 29.1999 81.2955 29.5068 80.8259C29.8136 80.3564 30.2059 79.9765 30.654 79.7152C31.1021 79.4539 31.5941 79.3181 32.0927 79.318H37.7344C38.7922 75.5226 40.952 72.3049 43.8231 70.2471L44.5409 69.735C46.3861 68.4128 48.4805 67.6678 50.6305 67.5689C52.7805 67.47 54.9167 68.0203 56.8415 69.1689L56.9133 69.213C59.038 70.4825 60.825 72.4337 62.0739 74.8481C63.3228 77.2626 63.9843 80.0448 63.9844 82.8832Z" fill="#4B4B4B"/>
<path d="M63.9844 83.2387V88.8008C63.9844 90.0351 63.6593 91.238 63.0553 92.2393C62.4512 93.2406 61.5988 93.9894 60.6188 94.3796C59.6086 94.782 58.5164 94.782 57.5062 94.3796C56.5262 93.9894 55.6738 93.2406 55.0697 92.2393C54.4657 91.238 54.1406 90.0351 54.1406 88.8008V79.3182H60.7031L63.9844 83.2387Z" fill="black"/>
<path d="M48.7386 92.4663L45.4573 96.3867C45.1493 96.7541 44.7318 96.9603 44.2966 96.9601H40.3119C40.7364 95.7766 41.0153 94.9999 41.0153 94.9999H36.2944C34.6967 95.0017 33.1538 94.3044 31.957 93.0397H43.6178L46.4171 89.6926C46.7249 89.3247 47.1425 89.1181 47.5778 89.1181C48.0132 89.1181 48.4307 89.3247 48.7386 89.6926C49.0464 90.0604 49.2194 90.5593 49.2194 91.0794C49.2194 91.5996 49.0464 92.0985 48.7386 92.4663Z" fill="black"/>
<path d="M34.4535 79.3182V81.6874C34.4535 82.6187 34.1438 83.5119 33.5927 84.1704C33.0415 84.829 32.294 85.1989 31.5145 85.1989H29.1214L28.9102 84.1894C28.7893 83.6115 28.7802 83.0082 28.8836 82.4254C28.9871 81.8427 29.2003 81.2957 29.5071 80.8262C29.8139 80.3566 30.2063 79.9767 30.6543 79.7155C31.1024 79.4542 31.5944 79.3183 32.093 79.3182H34.4535Z" fill="black"/>
<path d="M39.5415 115.641C39.2369 115.641 38.9384 115.539 38.6794 115.348C38.4204 115.156 38.2111 114.883 38.075 114.557C37.9389 114.232 37.8813 113.867 37.9088 113.505C37.9362 113.142 38.0475 112.796 38.2302 112.505C40.187 109.39 41.7099 105.917 42.7399 102.221C42.8065 101.975 42.9132 101.746 43.0541 101.55C43.1949 101.353 43.3671 101.191 43.5605 101.074C43.7539 100.957 43.9649 100.887 44.1811 100.868C44.3973 100.849 44.6146 100.881 44.8202 100.963C45.0259 101.045 45.216 101.175 45.3794 101.345C45.5428 101.516 45.6764 101.723 45.7724 101.955C45.8684 102.187 45.9249 102.44 45.9387 102.699C45.9524 102.957 45.9232 103.216 45.8526 103.461C44.7112 107.557 43.0236 111.405 40.8552 114.857C40.7024 115.101 40.5041 115.299 40.276 115.435C40.048 115.571 39.7964 115.642 39.5415 115.641Z" fill="black"/>
<path d="M52.5 34.233C54.0424 33.6189 55.4542 32.6104 56.6371 31.2779C57.8201 29.9454 58.7457 28.3208 59.3496 26.5173L60.7031 22.4716L52.5 20.5114V34.233Z" fill="#834B10"/>
<path d="M60.7031 22.4716L60.8953 22.8159C62.8548 26.3279 65.5098 29.2076 68.6245 31.1993C71.7392 33.191 75.2173 34.233 78.75 34.233V20.5114L60.7031 22.4716Z" fill="#834B10"/>
<path d="M58.9258 42.4006C60.0584 42.4006 60.9766 41.3036 60.9766 39.9503C60.9766 38.5971 60.0584 37.5001 58.9258 37.5001C57.7932 37.5001 56.875 38.5971 56.875 39.9503C56.875 41.3036 57.7932 42.4006 58.9258 42.4006Z" fill="black"/>
<path d="M67.6758 42.4006C68.8084 42.4006 69.7266 41.3036 69.7266 39.9503C69.7266 38.5971 68.8084 37.5001 67.6758 37.5001C66.5432 37.5001 65.625 38.5971 65.625 39.9503C65.625 41.3036 66.5432 42.4006 67.6758 42.4006Z" fill="black"/>
<path d="M75.4688 85.1989C75.0336 85.1989 74.6163 84.9924 74.3087 84.6247C74.001 84.2571 73.8281 83.7585 73.8281 83.2386V69.5171C73.8281 68.9972 74.001 68.4986 74.3087 68.131C74.6163 67.7633 75.0336 67.5568 75.4688 67.5568C75.9039 67.5568 76.3212 67.7633 76.6288 68.131C76.9365 68.4986 77.1094 68.9972 77.1094 69.5171V83.2386C77.1094 83.7585 76.9365 84.2571 76.6288 84.6247C76.3212 84.9924 75.9039 85.1989 75.4688 85.1989Z" fill="#C3C3C3"/>
<path d="M75.4688 95C78.187 95 80.3906 92.3671 80.3906 89.1193C80.3906 85.8715 78.187 83.2386 75.4688 83.2386C72.7505 83.2386 70.5469 85.8715 70.5469 89.1193C70.5469 92.3671 72.7505 95 75.4688 95Z" fill="#E4E4E2"/>
<path d="M75.4688 91.0796C76.3748 91.0796 77.1094 90.2019 77.1094 89.1193C77.1094 88.0367 76.3748 87.1591 75.4688 87.1591C74.5627 87.1591 73.8281 88.0367 73.8281 89.1193C73.8281 90.2019 74.5627 91.0796 75.4688 91.0796Z" fill="#C3C3C3"/>
<path d="M82.0312 120.483H57.4219C56.1165 120.483 54.8646 119.863 53.9416 118.761C53.0186 117.658 52.5 116.162 52.5 114.602C52.5 113.043 53.0186 111.547 53.9416 110.444C54.8646 109.341 56.1165 108.722 57.4219 108.722H59.0625C59.0625 107.682 59.4082 106.685 60.0236 105.949C60.6389 105.214 61.4735 104.801 62.3438 104.801H62.6253C63.4955 104.801 64.33 105.214 64.9454 105.949L67.2656 108.722H82.0312V120.483Z" fill="#F6BB92"/>
<path d="M27.4577 111.383C27.2152 112.025 27.0915 112.721 27.095 113.425C27.0986 114.129 27.2292 114.824 27.4781 115.462C27.7269 116.1 28.0881 116.666 28.5369 117.122C28.9858 117.578 29.5117 117.913 30.0788 118.104L36.3939 120.235C37.6501 120.659 38.9958 120.47 40.135 119.709C41.2743 118.947 42.1138 117.677 42.4688 116.176C42.8236 114.675 42.665 113.067 42.0278 111.706C41.3907 110.345 40.3271 109.342 39.071 108.918L37.4919 108.385C37.6091 107.89 37.6435 107.371 37.5931 106.86C37.5427 106.349 37.4085 105.854 37.1982 105.405C36.9879 104.956 36.7055 104.56 36.3673 104.241C36.029 103.922 35.6415 103.686 35.2269 103.546L34.9559 103.455C34.5413 103.315 34.1076 103.273 33.6796 103.334C33.2517 103.394 32.8379 103.554 32.4618 103.806C30.6019 105.049 29.1248 106.972 28.2476 109.293L27.4577 111.383Z" fill="#F6BB92"/>
<path d="M19.0827 47.9546C20.6523 47.9548 22.1577 48.8188 23.2677 50.3568L26.2497 54.4889L29.2314 50.3568C30.3415 48.8189 31.8468 47.9548 33.4165 47.9546C34.7366 47.9546 36.0188 48.566 37.0592 49.6917C38.0997 50.8175 38.8388 52.3929 39.1589 54.1675C39.5209 56.1739 39.4264 58.2863 38.8882 60.2154C38.35 62.1444 37.3946 63.7957 36.1527 64.9429L26.25 74.091L16.3473 64.9429C15.1055 63.7957 14.15 62.1445 13.6118 60.2154C13.0736 58.2864 12.9791 56.1739 13.3412 54.1675C13.6612 52.3931 14.4001 50.8178 15.4404 49.6921C16.4807 48.5664 17.7627 47.9548 19.0827 47.9546Z" fill="#5D62B5"/>
<path d="M52.5 34.233H54.1406V45.9943H52.5V34.233Z" fill="#EEB58E"/>
<path d="M77.1094 34.233H78.75V45.9943H77.1094V34.233Z" fill="#EEB58E"/>
<path d="M59.2664 67.7715L65.6254 75.3978L71.9182 67.8298C71.5352 67.7535 71.1872 67.5174 70.9361 67.1633C70.6851 66.8093 70.5473 66.3603 70.5473 65.8963V59.7159H60.7035V65.8265C60.7035 66.3042 60.5575 66.7656 60.2928 67.1237C60.0282 67.4819 59.6632 67.7123 59.2664 67.7715Z" fill="#F6BB92"/>
<path d="M65.625 63.6364C60.9837 63.6364 56.5325 61.7088 53.2506 58.2778C49.9687 54.8467 48.125 50.1932 48.125 45.3409V42.7273H83.125V45.3409C83.125 50.1932 81.2813 54.8467 77.9994 58.2778C74.7175 61.7088 70.2663 63.6364 65.625 63.6364Z" fill="#5D62B5"/>
<path d="M45.9375 83.2387C46.8436 83.2387 47.5781 82.3611 47.5781 81.2785C47.5781 80.1959 46.8436 79.3182 45.9375 79.3182C45.0314 79.3182 44.2969 80.1959 44.2969 81.2785C44.2969 82.3611 45.0314 83.2387 45.9375 83.2387Z" fill="black"/>
</svg>
