<svg width="90" height="123" viewBox="0 0 90 123" fill="none" xmlns="http://www.w3.org/2000/svg">
<path d="M39.375 42.1875L30.9375 53.6932C30.6861 53.523 30.4424 53.3385 30.2062 53.1395C28.8083 51.9825 27.6356 50.3829 26.7874 48.4764C25.9391 46.5699 25.4405 44.4127 25.3336 42.1875C25.3195 41.8879 25.3125 41.5859 25.3125 41.2815V36.4347H33.75L39.375 42.1875Z" fill="#F3AF3E"/>
<path d="M36.5624 47.9403L33.0468 50.8168L30.2062 53.1395C28.8082 51.9824 27.6355 50.3829 26.7873 48.4764C25.939 46.5699 25.4404 44.4127 25.3335 42.1875H32.472L35.8698 46.9672L36.5624 47.9403Z" fill="#5B3726"/>
<path d="M64.6875 36.4347V41.2815C64.6875 41.5859 64.6805 41.8879 64.6664 42.1875C64.5497 44.6054 63.9711 46.9395 62.988 48.9579C62.0049 50.9764 60.6516 52.6089 59.0625 53.6932L50.625 42.1875L56.25 36.4347H64.6875Z" fill="#F3AF3E"/>
<path d="M64.6664 42.1875C64.5669 44.2614 64.1269 46.2784 63.3791 48.0894C62.6313 49.9004 61.5946 51.4591 60.3457 52.6505L56.25 49.858L53.4375 47.9403L54.1301 46.9672L57.5279 42.1875H64.6664Z" fill="#5B3726"/>
<path d="M60.4688 57.5284V82.4574H29.5312V57.5284C29.5312 51.934 31.161 46.5688 34.0619 42.6129C36.9629 38.6571 40.8974 36.4347 45 36.4347C49.1026 36.4347 53.0371 38.6571 55.9381 42.6129C58.839 46.5688 60.4688 51.934 60.4688 57.5284Z" fill="#F3AF3E"/>
<path d="M63.2812 7.67047L61.875 15.3409L77.3438 28.7642V80.5398H82.9688V24.929L64.6875 8.30976L63.2812 7.67047Z" fill="#B9B9B9"/>
<path d="M82.9688 86.2926V97.7983C82.9688 102.884 81.4872 107.762 78.8499 111.358C76.2127 114.954 72.6359 116.974 68.9062 116.974H21.0938C17.3641 116.974 13.7873 114.954 11.1501 111.358C8.51283 107.762 7.03125 102.884 7.03125 97.7983V86.2926H82.9688Z" fill="#5D62B5"/>
<path d="M82.9688 78.6222H7.03125C5.47795 78.6222 4.21875 80.3393 4.21875 82.4574C4.21875 84.5756 5.47795 86.2926 7.03125 86.2926H82.9688C84.522 86.2926 85.7812 84.5756 85.7812 82.4574C85.7812 80.3393 84.522 78.6222 82.9688 78.6222Z" fill="#5D62B5"/>
<path d="M60.9588 21.5402L54.668 8.82115L58.6116 6.3666C59.6841 5.69906 60.8954 5.57195 62.0301 6.00789C63.1648 6.44382 64.1493 7.41453 64.8085 8.74732C65.4676 10.0801 65.7587 11.6885 65.63 13.2864C65.5012 14.8843 64.961 16.3681 64.1053 17.4739L60.9588 21.5402Z" fill="#CBCBCB"/>
<path d="M37.5266 49.986L41.7468 48.0697L42.6356 51.7096L38.4154 53.6258L37.5266 49.986Z" fill="#D18D28"/>
<path d="M47.3677 51.6457L48.2565 48.0058L52.4766 49.922L51.5878 53.5619L47.3677 51.6457Z" fill="#D18D28"/>
<path d="M53.7578 64.7938L52.4999 61.3637C51.3854 62.1185 47.5992 66.306 46.4069 65.8202V61.3636H43.5944V65.8221C42.4021 66.3072 38.6143 62.1183 37.4998 61.3636L36.2419 64.7938C37.2073 65.4487 40.7674 69.8594 41.8445 69.924C42.9217 69.9887 43.9969 69.7448 45.0007 69.2081C46.0046 69.7446 47.0797 69.9883 48.1569 69.9235C49.2341 69.8586 52.7925 65.4489 53.7578 64.7938Z" fill="#744630"/>
<path d="M33.75 76.7046C33.7509 77.3778 33.6211 78.0394 33.3738 78.6222H29.5312V70.9517C30.6501 70.9517 31.7232 71.5578 32.5143 72.6367C33.3055 73.7156 33.75 75.1788 33.75 76.7046Z" fill="#D18D28"/>
<path d="M60.4687 70.9517V78.6222H56.6262C56.3789 78.0394 56.2491 77.3778 56.25 76.7046C56.25 75.1788 56.6945 73.7156 57.4856 72.6367C58.2768 71.5578 59.3499 70.9517 60.4687 70.9517Z" fill="#D18D28"/>
<path d="M40.7812 32.5998H37.9688C37.9678 30.4161 38.246 28.2489 38.7907 26.1954L41.436 27.4985C41.0021 29.1341 40.7805 30.8604 40.7812 32.5998Z" fill="#C0F5F9"/>
<path d="M42.7163 24.0971L40.3977 21.9258C41.5178 19.695 42.9789 17.8215 44.6806 16.434L45.6826 15.6143L47.1296 18.903L46.1276 19.7227C44.7722 20.8279 43.6084 22.3202 42.7163 24.0971Z" fill="#C0F5F9"/>
<path d="M47.8125 32.5998H45C44.9991 30.4161 45.2772 28.2489 45.822 26.1954L48.4673 27.4985C48.0334 29.1341 47.8118 30.8604 47.8125 32.5998Z" fill="#C0F5F9"/>
<path d="M49.7475 24.0971L47.429 21.9258C48.5491 19.695 50.0102 17.8215 51.7119 16.434L52.7138 15.6143L54.1609 18.903L53.1589 19.7227C51.8035 20.8279 50.6397 22.3202 49.7475 24.0971Z" fill="#C0F5F9"/>
<path d="M54.8438 32.5998H52.0313C52.0303 30.4161 52.3085 28.2489 52.8532 26.1954L55.4986 27.4985C55.0646 29.1341 54.8431 30.8604 54.8438 32.5998Z" fill="#C0F5F9"/>
<path d="M14.0625 70.9517C17.1691 70.9517 19.6875 67.5175 19.6875 63.2812C19.6875 59.045 17.1691 55.6108 14.0625 55.6108C10.9559 55.6108 8.4375 59.045 8.4375 63.2812C8.4375 67.5175 10.9559 70.9517 14.0625 70.9517Z" fill="#B3E4E8"/>
<path d="M8.4375 49.858C10.7675 49.858 12.6562 47.2823 12.6562 44.1051C12.6562 40.9279 10.7675 38.3523 8.4375 38.3523C6.10755 38.3523 4.21875 40.9279 4.21875 44.1051C4.21875 47.2823 6.10755 49.858 8.4375 49.858Z" fill="#C0F5F9"/>
<path d="M68.9062 65.1989C70.4596 65.1989 71.7188 63.4818 71.7188 61.3637C71.7188 59.2455 70.4596 57.5284 68.9062 57.5284C67.3529 57.5284 66.0938 59.2455 66.0938 61.3637C66.0938 63.4818 67.3529 65.1989 68.9062 65.1989Z" fill="#C0F5F9"/>
<path d="M45 98.9968C45.4973 98.9968 45.9742 98.7527 46.3258 98.3182C46.6775 97.8836 46.875 97.2942 46.875 96.6797V94.3626C46.875 93.7481 46.6775 93.1587 46.3258 92.7241C45.9742 92.2896 45.4973 92.0455 45 92.0455C44.5027 92.0455 44.0258 92.2896 43.6742 92.7241C43.3225 93.1587 43.125 93.7481 43.125 94.3626V96.6797C43.125 97.2942 43.3225 97.8836 43.6742 98.3182C44.0258 98.7527 44.5027 98.9968 45 98.9968Z" fill="#29C3BE"/>
<path d="M41.25 101.314V98.9968C41.25 98.3823 41.0525 97.7929 40.7008 97.3584C40.3492 96.9238 39.8723 96.6797 39.375 96.6797C38.8777 96.6797 38.4008 96.9238 38.0492 97.3584C37.6975 97.7929 37.5 98.3823 37.5 98.9968V101.314C37.5 101.928 37.6975 102.518 38.0492 102.952C38.4008 103.387 38.8777 103.631 39.375 103.631C39.8723 103.631 40.3492 103.387 40.7008 102.952C41.0525 102.518 41.25 101.928 41.25 101.314Z" fill="#29C3BE"/>
<path d="M50.625 96.6797C50.1277 96.6797 49.6508 96.9238 49.2992 97.3584C48.9475 97.7929 48.75 98.3823 48.75 98.9968V101.314C48.75 101.928 48.9475 102.518 49.2992 102.952C49.6508 103.387 50.1277 103.631 50.625 103.631C51.1223 103.631 51.5992 103.387 51.9508 102.952C52.3025 102.518 52.5 101.928 52.5 101.314V98.9968C52.5 98.3823 52.3025 97.7929 51.9508 97.3584C51.5992 96.9238 51.1223 96.6797 50.625 96.6797Z" fill="#29C3BE"/>
<path d="M48.75 105.948H46.875V103.631C46.875 103.017 46.6775 102.427 46.3258 101.993C45.9742 101.558 45.4973 101.314 45 101.314C44.5027 101.314 44.0258 101.558 43.6742 101.993C43.3225 102.427 43.125 103.017 43.125 103.631V105.948H41.25C40.7527 105.948 40.2758 106.192 39.9242 106.627C39.5725 107.061 39.375 107.651 39.375 108.265C39.375 108.88 39.5725 109.469 39.9242 109.904C40.2758 110.338 40.7527 110.582 41.25 110.582H48.75C49.2473 110.582 49.7242 110.338 50.0758 109.904C50.4275 109.469 50.625 108.88 50.625 108.265C50.625 107.651 50.4275 107.061 50.0758 106.627C49.7242 106.192 49.2473 105.948 48.75 105.948Z" fill="#29C3BE"/>
<path d="M29.5312 80.5398H26.7188C25.9728 80.5398 25.2575 80.1357 24.73 79.4165C24.2026 78.6972 23.9062 77.7217 23.9062 76.7046C23.9062 75.1788 24.3507 73.7156 25.1419 72.6367C25.9331 71.5578 27.0061 70.9517 28.125 70.9517C29.2439 70.9517 30.3169 71.5578 31.1081 72.6367C31.8993 73.7156 32.3438 75.1788 32.3438 76.7046C32.3438 77.7217 32.0474 78.6972 31.52 79.4165C30.9925 80.1357 30.2772 80.5398 29.5312 80.5398Z" fill="#F3AF3E"/>
<path d="M63.2812 80.5398H60.4688C59.7228 80.5398 59.0075 80.1357 58.48 79.4165C57.9526 78.6972 57.6562 77.7217 57.6562 76.7046C57.6562 75.1788 58.1007 73.7156 58.8919 72.6367C59.6831 71.5578 60.7561 70.9517 61.875 70.9517C62.9939 70.9517 64.0669 71.5578 64.8581 72.6367C65.6493 73.7156 66.0938 75.1788 66.0938 76.7046C66.0938 77.7217 65.7974 78.6972 65.27 79.4165C64.7425 80.1357 64.0272 80.5398 63.2812 80.5398Z" fill="#F3AF3E"/>
<path d="M45 63.2812C44.2541 63.2812 43.5387 62.8772 43.0113 62.1579C42.4838 61.4387 42.1875 60.4632 42.1875 59.446V55.6108H47.8125V59.446C47.8125 60.4632 47.5162 61.4387 46.9887 62.1579C46.4613 62.8772 45.7459 63.2812 45 63.2812Z" fill="#5B3726"/>
<path d="M7.03125 86.2926H82.9688V90.1278H7.03125V86.2926Z" fill="#50559F"/>
<path d="M49.2141 11.5287L53.8773 7.24096L61.7382 23.138L57.0751 27.4258L49.2141 11.5287Z" fill="#B9B9B9"/>
</svg>
