<svg width="94" height="140" viewBox="0 0 94 140" fill="none" xmlns="http://www.w3.org/2000/svg">
<path d="M87.1122 12.5H6.88801C5.24703 12.5 3.91675 14.4769 3.91675 16.9156V100.812C3.91675 103.25 5.24703 105.227 6.88801 105.227H87.1122C88.7531 105.227 90.0834 103.25 90.0834 100.812V16.9156C90.0834 14.4769 88.7531 12.5 87.1122 12.5Z" fill="#5D62B5"/>
<path d="M41.125 54.5171L32.3125 67.5569C32.05 67.364 31.7954 67.1548 31.5487 66.9293C30.0887 65.618 28.8638 63.8052 27.9779 61.6445C27.092 59.4838 26.5711 57.0389 26.4595 54.5171C26.4448 54.1775 26.4375 53.8352 26.4375 53.4902V47.9972H35.25L41.125 54.5171Z" fill="#F3AF3E"/>
<path d="M38.1874 61.037L34.5156 64.2969L31.5487 66.9293C30.0886 65.618 28.8638 63.8052 27.9778 61.6445C27.0919 59.4838 26.5711 57.0389 26.4595 54.5171H33.9152L37.4641 59.934L38.1874 61.037Z" fill="#5B3726"/>
<path d="M67.5625 47.9972V53.4902C67.5625 53.8352 67.5552 54.1775 67.5405 54.5171C67.4186 57.2573 66.8142 59.9026 65.7874 62.1902C64.7606 64.4777 63.3472 66.3279 61.6875 67.5569L52.875 54.5171L58.75 47.9972H67.5625Z" fill="#F3AF3E"/>
<path d="M67.5405 54.5171C67.4365 56.8676 66.977 59.1534 66.1959 61.2059C65.4149 63.2583 64.3321 65.0249 63.0277 66.3751L58.75 63.2103L55.8125 61.037L56.5359 59.934L60.0847 54.5171H67.5405Z" fill="#5B3726"/>
<path d="M63.1562 71.9034V100.156H30.8438V71.9034C30.8438 65.5631 32.5459 59.4825 35.5758 54.9992C38.6057 50.5159 42.7151 47.9972 47 47.9972C51.2849 47.9972 55.3943 50.5159 58.4242 54.9992C61.4541 59.4825 63.1562 65.5631 63.1562 71.9034Z" fill="#F3AF3E"/>
<path d="M39.1943 63.3553L43.602 61.1836L44.5304 65.3088L40.1226 67.4805L39.1943 63.3553Z" fill="#D18D28"/>
<path d="M49.4727 65.2363L50.401 61.1112L54.8087 63.2829L53.8804 67.408L49.4727 65.2363Z" fill="#D18D28"/>
<path d="M56.1471 80.1375L54.8333 76.25C53.6693 77.1055 49.7148 81.8513 48.4696 81.3007V76.25H45.5321V81.3029C44.2867 81.8527 40.3306 77.1053 39.1666 76.25L37.8528 80.1375C38.861 80.8797 42.5793 85.8785 43.7044 85.9518C44.8294 86.0251 45.9524 85.7487 47.0008 85.1404C48.0493 85.7485 49.1723 86.0246 50.2973 85.9511C51.4224 85.8776 55.1389 80.8799 56.1471 80.1375Z" fill="#744630"/>
<path d="M35.25 93.6364C35.2509 94.3994 35.1154 95.1493 34.8571 95.8097H30.8438V87.1165C32.0124 87.1165 33.1331 87.8034 33.9594 89.0262C34.7858 90.2489 35.25 91.9072 35.25 93.6364Z" fill="#D18D28"/>
<path d="M63.1562 87.1165V95.8097H59.1429C58.8846 95.1493 58.7491 94.3994 58.75 93.6364C58.75 91.9072 59.2142 90.2489 60.0406 89.0262C60.8669 87.8034 61.9876 87.1165 63.1562 87.1165Z" fill="#D18D28"/>
<path d="M30.8438 97.983H27.9062C27.1272 97.983 26.38 97.5251 25.8291 96.7099C25.2782 95.8948 24.9688 94.7892 24.9688 93.6364C24.9688 91.9072 25.433 90.2489 26.2593 89.0261C27.0856 87.8034 28.2064 87.1165 29.375 87.1165C30.5436 87.1165 31.6644 87.8034 32.4907 89.0261C33.317 90.2489 33.7812 91.9072 33.7812 93.6364C33.7812 94.7892 33.4718 95.8948 32.9209 96.7099C32.37 97.5251 31.6228 97.983 30.8438 97.983Z" fill="#F3AF3E"/>
<path d="M66.0938 97.983H63.1562C62.3772 97.983 61.63 97.5251 61.0791 96.7099C60.5282 95.8948 60.2188 94.7892 60.2188 93.6364C60.2188 91.9072 60.683 90.2489 61.5093 89.0261C62.3356 87.8034 63.4564 87.1165 64.625 87.1165C65.7936 87.1165 66.9144 87.8034 67.7407 89.0261C68.567 90.2489 69.0312 91.9072 69.0312 93.6364C69.0312 94.7892 68.7218 95.8948 68.1709 96.7099C67.62 97.5251 66.8728 97.983 66.0938 97.983Z" fill="#F3AF3E"/>
<path d="M47 78.4233C46.2209 78.4233 45.4738 77.9654 44.9229 77.1503C44.372 76.3351 44.0625 75.2295 44.0625 74.0768V69.7302H49.9375V74.0768C49.9375 75.2295 49.628 76.3351 49.0771 77.1503C48.5262 77.9654 47.7791 78.4233 47 78.4233Z" fill="#5B3726"/>
<path d="M60.2188 118.992H33.7812L34.0328 118.619C36.6917 114.682 38.186 109.344 38.1875 103.778H55.8125C55.8127 109.345 57.3072 114.683 59.9672 118.619L60.2188 118.992Z" fill="#D9D9D9"/>
<path d="M87.1122 105.227H6.88801C6.09998 105.227 5.34423 104.739 4.78701 103.869C4.22979 103 3.91675 101.821 3.91675 100.591V93.6364H90.0834V100.591C90.0834 101.821 89.7704 103 89.2132 103.869C88.6559 104.739 87.9002 105.227 87.1122 105.227Z" fill="#E4E4E2"/>
<path d="M33.7812 118.992H60.2188C60.9978 118.992 61.745 119.449 62.2959 120.265C62.8468 121.08 63.1562 122.185 63.1562 123.338V127.685H30.8438V123.338C30.8438 122.185 31.1532 121.08 31.7041 120.265C32.255 119.449 33.0022 118.992 33.7812 118.992Z" fill="#E4E4E2"/>
<path d="M56.1205 108.125H37.8787C38.0839 106.696 38.1873 105.239 38.1871 103.778H55.8121C55.8119 105.239 55.9153 106.696 56.1205 108.125Z" fill="#A8A8A8"/>
<ellipse cx="82.2499" cy="24.0909" rx="3.91667" ry="5.79545" fill="#62B58F"/>
</svg>
