<svg width="24" height="28" viewBox="0 0 24 28" fill="none" xmlns="http://www.w3.org/2000/svg">
<path d="M15.5787 3.51651H7.76571C5.11246 3.51651 2.95386 6.04954 2.95386 9.16288V18.3307C2.95386 21.4442 5.11246 23.9771 7.76571 23.9771H15.5787C18.2322 23.9771 20.3908 21.444 20.3908 18.3307V9.16288C20.3909 6.04954 18.2322 3.51651 15.5787 3.51651ZM18.8438 18.3307C18.8438 20.4432 17.3791 22.1617 15.5788 22.1617H7.76571C5.96552 22.1618 4.50094 20.4432 4.50094 18.3307V9.16288C4.50094 7.05053 5.96552 5.33187 7.76571 5.33187H15.5787C17.379 5.33187 18.8437 7.05053 18.8437 9.16288L18.8438 18.3307Z" fill="url(#paint0_linear)"/>
<path d="M11.6723 8.47485C9.19477 8.47485 7.17922 10.8399 7.17922 13.747C7.17922 16.654 9.19477 19.0189 11.6723 19.0189C14.1498 19.0189 16.1653 16.654 16.1653 13.747C16.1653 10.8399 14.1498 8.47485 11.6723 8.47485ZM11.6723 17.2035C10.0479 17.2035 8.72631 15.6529 8.72631 13.7469C8.72631 11.8408 10.0478 10.2901 11.6723 10.2901C13.2967 10.2901 14.6182 11.8408 14.6182 13.7469C14.6182 15.6529 13.2966 17.2035 11.6723 17.2035Z" fill="url(#paint1_linear)"/>
<path d="M16.3538 6.93548C16.0557 6.93548 15.7629 7.07708 15.5524 7.32518C15.3409 7.57207 15.2193 7.91578 15.2193 8.26675C15.2193 8.61663 15.341 8.96021 15.5524 9.20831C15.7628 9.4552 16.0557 9.59801 16.3538 9.59801C16.6529 9.59801 16.9448 9.4552 17.1562 9.20831C17.3677 8.96021 17.4883 8.61651 17.4883 8.26675C17.4883 7.91578 17.3677 7.57207 17.1562 7.32518C16.9458 7.07708 16.6529 6.93548 16.3538 6.93548Z" fill="url(#paint2_linear)"/>
<defs>
<linearGradient id="paint0_linear" x1="2.95386" y1="21.6326" x2="20.7837" y2="21.2373" gradientUnits="userSpaceOnUse">
<stop stop-color="#DC4946"/>
<stop offset="0.497638" stop-color="#F2726F"/>
<stop offset="1" stop-color="#FFC533"/>
</linearGradient>
<linearGradient id="paint1_linear" x1="2.95386" y1="21.6326" x2="20.7837" y2="21.2373" gradientUnits="userSpaceOnUse">
<stop stop-color="#DC4946"/>
<stop offset="0.497638" stop-color="#F2726F"/>
<stop offset="1" stop-color="#FFC533"/>
</linearGradient>
<linearGradient id="paint2_linear" x1="2.95386" y1="21.6326" x2="20.7837" y2="21.2373" gradientUnits="userSpaceOnUse">
<stop stop-color="#DC4946"/>
<stop offset="0.497638" stop-color="#F2726F"/>
<stop offset="1" stop-color="#FFC533"/>
</linearGradient>
</defs>
</svg>
