<svg width="24" height="28" viewBox="0 0 24 28" fill="none" xmlns="http://www.w3.org/2000/svg">
<path d="M22.1193 6.9266C21.3734 7.32445 20.5694 7.58589 19.7363 7.71092C20.5887 7.10848 21.2475 6.15365 21.5575 5.00559C20.7534 5.57393 19.8622 5.97178 18.9226 6.19912C18.1573 5.22156 17.082 4.65321 15.8614 4.65321C13.5849 4.65321 11.725 6.83567 11.725 9.52964C11.725 9.91612 11.7637 10.2912 11.8315 10.6436C8.38291 10.439 5.31208 8.49525 3.26809 5.5512C2.90966 6.26732 2.70623 7.10848 2.70623 7.9951C2.70623 9.68878 3.43277 11.1892 4.55648 12.0417C3.86869 12.0417 3.22934 11.8144 2.66748 11.4734C2.66748 11.4734 2.66748 11.4734 2.66748 11.5075C2.66748 13.8718 4.10118 15.8497 5.99987 16.293C5.65113 16.4067 5.28302 16.4635 4.90522 16.4635C4.64366 16.4635 4.38211 16.4294 4.13024 16.3726C4.65335 18.2936 6.17424 19.7258 8.00511 19.7599C6.59079 21.0785 4.79866 21.8514 2.84185 21.8514C2.51249 21.8514 2.18312 21.8287 1.85376 21.7832C3.69432 23.17 5.88362 23.9771 8.22792 23.9771C15.8614 23.9771 20.056 16.5431 20.056 10.098C20.056 9.88202 20.0559 9.67741 20.0463 9.46144C20.86 8.77942 21.5575 7.91553 22.1193 6.9266Z" fill="url(#paint0_linear)"/>
<defs>
<linearGradient id="paint0_linear" x1="1.85376" y1="21.7629" x2="22.5708" y2="21.1975" gradientUnits="userSpaceOnUse">
<stop stop-color="#DC4946"/>
<stop offset="0.497638" stop-color="#F2726F"/>
<stop offset="1" stop-color="#FFC533"/>
</linearGradient>
</defs>
</svg>
