<svg width="24" height="28" viewBox="0 0 24 28" fill="none" xmlns="http://www.w3.org/2000/svg">
<path d="M10.4221 17.1566L15.4497 13.7465L10.4221 10.3364V17.1566ZM21.6205 8.25628C21.7464 8.79052 21.8336 9.50664 21.8917 10.416C21.9595 11.3254 21.9886 12.1097 21.9886 12.7917L22.0467 13.7465C22.0467 16.2359 21.8917 18.066 21.6205 19.2368C21.3783 20.2598 20.8164 20.9191 19.9446 21.2033C19.4893 21.351 18.6562 21.4533 17.3775 21.5215C16.1182 21.6011 14.9654 21.6352 13.8998 21.6352L12.3595 21.7034C8.30061 21.7034 5.77226 21.5215 4.77448 21.2033C3.90263 20.9191 3.34078 20.2598 3.0986 19.2368C2.97267 18.7025 2.88548 17.9864 2.82736 17.077C2.75955 16.1677 2.73049 15.3834 2.73049 14.7014L2.67236 13.7465C2.67236 11.2572 2.82736 9.42707 3.0986 8.25628C3.34078 7.23325 3.90263 6.57396 4.77448 6.28979C5.22978 6.14202 6.06287 6.03972 7.34158 5.97151C8.60091 5.89194 9.75368 5.85784 10.8193 5.85784L12.3595 5.78964C16.4185 5.78964 18.9468 5.97151 19.9446 6.28979C20.8164 6.57396 21.3783 7.23325 21.6205 8.25628Z" fill="url(#paint0_linear)"/>
<defs>
<linearGradient id="paint0_linear" x1="2.67236" y1="19.88" x2="22.4732" y2="19.2527" gradientUnits="userSpaceOnUse">
<stop stop-color="#DC4946"/>
<stop offset="0.497638" stop-color="#F2726F"/>
<stop offset="1" stop-color="#FFC533"/>
</linearGradient>
</defs>
</svg>
