<?xml version="1.0" standalone="no"?>
<!DOCTYPE svg PUBLIC "-//W3C//DTD SVG 20010904//EN"
 "http://www.w3.org/TR/2001/REC-SVG-20010904/DTD/svg10.dtd">
<svg version="1.0" xmlns="http://www.w3.org/2000/svg"
 width="1500.000000pt" height="1500.000000pt" viewBox="0 0 1500.000000 1500.000000"
 preserveAspectRatio="xMidYMid meet">

<g transform="translate(0.000000,1500.000000) scale(0.100000,-0.100000)"
fill="#000000" stroke="none">
<path d="M6225 14306 c-81 -19 -128 -40 -207 -92 -173 -115 -353 -377 -444
-649 -147 -441 -117 -1006 74 -1379 175 -341 479 -516 827 -477 379 43 716
254 859 538 14 28 38 91 53 140 25 82 27 101 27 273 1 213 -11 288 -75 482
-66 201 -223 505 -382 743 -73 108 -258 296 -340 344 -131 77 -273 104 -392
77z m167 -127 c146 -31 315 -174 466 -392 54 -79 189 -312 244 -422 74 -148
141 -359 169 -537 17 -115 7 -325 -21 -413 -87 -275 -299 -450 -659 -541 -73
-19 -120 -24 -210 -24 -140 1 -182 9 -287 60 -218 105 -375 354 -447 705 -19
96 -22 141 -22 355 0 266 13 367 71 545 85 265 272 531 436 620 91 50 170 63
260 44z"/>
<path d="M8435 14293 c-104 -36 -200 -102 -302 -205 -100 -102 -127 -135 -213
-265 -283 -426 -422 -809 -422 -1163 1 -279 79 -472 264 -645 96 -90 182 -145
322 -205 153 -65 262 -91 407 -97 254 -11 425 53 595 222 248 247 373 661 343
1134 -18 292 -64 471 -177 698 -70 138 -158 265 -243 350 -135 136 -248 192
-404 200 -79 3 -100 1 -170 -24z m311 -148 c181 -88 372 -344 463 -620 92
-278 111 -638 51 -936 -80 -393 -278 -649 -560 -725 -98 -26 -270 -24 -385 5
-111 29 -279 102 -365 161 -132 89 -239 229 -288 378 -22 66 -26 100 -30 233
-3 130 -1 175 17 267 38 197 99 353 243 617 217 397 373 567 588 643 89 31
169 24 266 -23z"/>
<path d="M4728 12440 c-207 -53 -358 -269 -414 -593 -24 -138 -15 -415 19
-557 67 -284 208 -551 382 -726 327 -328 727 -321 1084 21 186 178 263 346
263 570 -2 277 -174 592 -480 874 -249 230 -401 333 -572 391 -74 24 -223 35
-282 20z m162 -131 c145 -23 308 -121 536 -319 201 -176 306 -299 393 -461
136 -251 144 -485 23 -683 -69 -114 -217 -248 -347 -314 -125 -63 -301 -84
-413 -49 -274 85 -512 413 -623 857 -21 84 -24 117 -23 290 1 178 3 204 27
294 59 219 140 333 272 378 59 21 70 21 155 7z"/>
<path d="M10010 12444 c-119 -23 -285 -104 -415 -201 -101 -76 -323 -279 -409
-374 -121 -134 -229 -319 -281 -479 -36 -112 -46 -301 -21 -400 51 -201 190
-383 395 -518 287 -189 554 -197 808 -24 78 53 209 192 276 294 116 175 204
393 247 613 42 210 25 482 -41 679 -45 135 -84 202 -169 287 -92 94 -151 120
-280 124 -47 2 -96 1 -110 -1z m218 -154 c128 -57 216 -222 257 -485 75 -479
-191 -1107 -545 -1284 -141 -71 -278 -76 -437 -16 -207 78 -408 276 -474 465
-33 96 -37 233 -10 341 24 94 94 247 148 324 109 152 323 363 519 510 207 156
400 208 542 145z"/>
<path d="M7305 11741 c-222 -49 -466 -211 -761 -505 -248 -248 -495 -562 -791
-1006 -241 -361 -385 -676 -429 -935 -22 -128 -15 -328 15 -428 85 -286 298
-493 656 -635 165 -65 397 -120 601 -142 124 -14 399 0 540 26 44 8 162 17
264 21 153 5 214 2 355 -15 94 -12 262 -26 375 -32 113 -6 213 -12 222 -14 59
-13 299 37 464 95 485 171 738 548 695 1035 -18 203 -90 478 -134 509 -27 19
-57 19 -85 -1 -29 -20 -28 -40 9 -154 76 -239 98 -465 61 -641 -35 -170 -120
-315 -248 -424 -184 -156 -451 -256 -744 -280 -81 -7 -492 23 -695 51 -142 19
-375 15 -530 -10 -124 -20 -458 -39 -545 -31 -240 23 -517 101 -704 198 -397
206 -537 547 -409 997 62 218 232 543 437 835 104 148 345 469 421 560 294
353 595 624 815 735 218 110 418 91 691 -63 141 -80 256 -173 435 -351 281
-282 459 -521 766 -1031 22 -36 33 -45 55 -45 16 0 39 7 51 16 41 29 30 64
-84 253 -288 477 -554 804 -869 1068 -247 207 -470 324 -670 352 -100 14 -134
13 -230 -8z"/>
<path d="M9166 10009 c-35 -27 -33 -55 9 -139 47 -93 89 -114 133 -67 30 32
28 45 -17 136 -28 55 -47 80 -63 85 -32 8 -32 8 -62 -15z"/>
<path d="M9775 5704 c-271 -44 -463 -218 -589 -532 -67 -167 -109 -393 -122
-665 -8 -156 6 -138 -123 -157 -141 -20 -266 -78 -343 -157 -44 -45 -59 -82
-59 -143 -1 -61 12 -89 58 -131 81 -73 196 -110 354 -112 l89 -2 0 -195 c0
-201 22 -616 40 -775 24 -204 125 -313 281 -302 156 10 252 110 270 280 10 94
13 974 3 1033 l-6 39 91 23 c179 43 332 117 393 191 70 82 54 197 -36 266 -64
49 -139 68 -266 69 -63 1 -135 -3 -159 -7 l-44 -8 7 103 c17 257 77 497 138
559 50 49 119 35 154 -33 10 -19 19 -77 25 -159 10 -139 23 -190 60 -238 50
-63 150 -85 259 -57 151 39 220 157 220 378 0 110 -22 246 -55 341 -62 179
-192 315 -354 370 -56 18 -223 31 -286 21z"/>
<path d="M1015 5594 c-159 -24 -300 -66 -472 -139 -132 -56 -340 -173 -358
-200 -34 -50 -54 -457 -62 -1255 -9 -979 17 -1262 134 -1430 58 -83 109 -114
194 -118 94 -6 145 14 205 81 125 140 174 352 200 879 l6 116 51 7 c430 56
849 414 1000 856 154 448 -22 937 -408 1132 -109 55 -171 69 -320 72 -77 2
-153 1 -170 -1z m186 -797 c52 -34 74 -88 74 -177 0 -65 -5 -83 -29 -125 -49
-84 -140 -163 -271 -238 l-120 -67 -2 87 c-3 112 -23 412 -30 436 -3 13 7 23
44 39 161 72 272 87 334 45z"/>
<path d="M10666 5504 c-113 -36 -184 -114 -193 -211 -4 -50 -2 -63 19 -93 13
-19 41 -45 63 -58 35 -20 50 -22 125 -19 68 3 96 9 140 31 104 53 160 127 160
212 0 96 -62 145 -190 151 -49 2 -92 -3 -124 -13z"/>
<path d="M14024 4970 c-146 -26 -262 -90 -389 -215 -215 -210 -347 -509 -395
-895 -46 -375 76 -783 310 -1033 173 -184 336 -260 560 -260 91 0 118 5 197
31 236 80 444 234 564 417 59 90 79 143 86 226 7 86 0 111 -43 159 -47 52
-107 74 -184 67 -67 -6 -96 -20 -294 -145 -148 -94 -184 -107 -283 -105 -125
3 -217 61 -249 155 -9 27 -14 52 -11 54 3 3 35 10 73 15 437 62 790 380 859
773 10 62 7 217 -6 272 -40 171 -173 337 -329 412 -47 23 -112 48 -145 57 -72
20 -250 28 -321 15z m230 -561 c36 -28 57 -83 58 -147 1 -118 -113 -206 -352
-272 -41 -11 -78 -20 -82 -20 -14 0 -8 64 13 140 43 155 132 275 225 304 69
21 107 19 138 -5z"/>
<path d="M2635 4871 c-290 -79 -475 -210 -562 -397 -24 -50 -28 -72 -28 -146
0 -81 2 -88 31 -125 45 -56 104 -83 184 -83 75 0 144 29 284 119 114 72 186
94 295 89 92 -5 128 -18 175 -65 43 -42 67 -106 73 -194 6 -76 5 -78 -18 -83
-13 -3 -59 -12 -102 -21 -519 -101 -916 -376 -987 -684 -20 -85 -9 -222 25
-306 66 -165 190 -302 343 -378 l86 -42 120 1 c92 0 141 6 206 23 103 27 265
104 339 159 30 23 58 39 62 36 5 -3 9 -20 9 -38 0 -98 73 -210 165 -252 64
-31 170 -33 231 -5 71 32 132 135 167 284 20 85 22 118 22 442 0 347 -8 478
-41 680 -42 258 -119 499 -212 658 -60 104 -193 217 -326 277 -105 48 -171 61
-326 66 -121 3 -156 1 -215 -15z m479 -1368 c3 -21 6 -84 6 -141 l0 -103 -112
-54 c-157 -75 -247 -92 -323 -61 -95 40 -62 166 70 264 100 74 233 129 321
131 29 1 32 -2 38 -36z"/>
<path d="M6429 4866 c-240 -85 -381 -460 -422 -1119 l-12 -192 -33 128 c-102
390 -248 767 -366 945 -91 138 -182 203 -262 188 -131 -25 -333 -402 -561
-1046 l-58 -165 -2 60 c-27 693 -135 1089 -325 1186 -42 21 -121 25 -182 8
-51 -14 -119 -79 -145 -138 -49 -116 -63 -357 -41 -716 56 -891 228 -1422 474
-1459 157 -24 345 151 576 535 78 129 239 441 291 562 l25 58 27 -128 c113
-522 288 -913 454 -1010 60 -35 115 -46 165 -32 150 40 341 394 486 899 155
541 250 1110 213 1268 -19 75 -63 139 -114 162 -49 23 -135 25 -188 6z"/>
<path d="M10652 4847 c-160 -58 -259 -313 -292 -755 -15 -184 -8 -842 9 -982
39 -311 114 -496 217 -530 73 -24 174 8 232 74 130 148 173 375 192 1001 15
499 -4 786 -62 965 -26 81 -70 170 -95 192 -48 44 -134 59 -201 35z"/>
<path d="M11365 4778 c-181 -63 -213 -361 -91 -842 47 -183 148 -500 209 -655
149 -378 342 -675 489 -752 65 -35 173 -33 252 4 187 87 370 398 658 1117 220
548 280 753 265 910 -15 166 -127 245 -278 195 -174 -58 -401 -439 -666 -1115
-36 -91 -66 -167 -68 -169 -2 -1 -17 24 -34 57 -39 77 -96 242 -172 501 -136
461 -244 677 -370 741 -43 22 -142 26 -194 8z"/>
<path d="M7410 3769 c-352 -31 -532 -108 -480 -204 50 -94 475 -135 1075 -105
219 11 373 31 479 60 77 21 106 42 106 76 0 54 -83 93 -285 133 -82 16 -194
35 -247 40 -112 13 -508 12 -648 0z"/>
</g>
</svg>
